<svg xmlns="http://www.w3.org/2000/svg" xmlns:svg="http://www.w3.org/2000/svg" style="enable-background:new 0 0 1920 1080" id="Layer_1" x="0" y="0" version="1.1" viewBox="0 0 1920 1080" xml:space="preserve"><metadata id="metadata85"/><style id="style2" type="text/css">.st0{fill:#212121}.st1,.st2{stroke-width:1.4324}.st1{fill:#b0bec5;stroke:#212121;stroke-miterlimit:10}.st2{fill:#607d8b}.st2,.st3,.st4{stroke:#212121;stroke-miterlimit:10}.st3{fill:#78909c;stroke-width:1.4324}.st4{fill:#90a4ae}.st4,.st5,.st6{stroke-width:1.4324}.st5{fill:#d0d8dc;stroke:#212121;stroke-miterlimit:10}.st6{fill:#eceff0}.st10,.st6,.st7,.st8,.st9{stroke:#212121;stroke-miterlimit:10}.st7{fill:#d0d8dc;stroke-width:1.4324;stroke-linecap:round}.st10,.st8,.st9{fill:#37474f}.st8,.st9{stroke-width:.7707}.st9{stroke-width:1.0371}.st10{stroke-width:1.193}.st11{fill:#fef9c5}.st12{fill:#faf291}.st13{fill:#fafbfb}.st14{fill:#ffe0b2}</style><rect id="XMLID_66_" width="1920" height="1080" x="0" y="0" class="st0"/><rect id="XMLID_22_" width="24.4" height="82.8" x="1688.1" y="943.6"/><rect id="XMLID_19_" width="35.3" height="120.9" x="1824.8" y="800.2"/><rect id="XMLID_18_" width="73.3" height="121.8" x="1789.5" y="904.6"/><rect id="XMLID_17_" width="359" height="73.3" x="1561" y="999.1"/><g id="XMLID_69_"><path id="XMLID_394_" d="M1636.2,868.5c0-12.2,0.1-24.4,0.1-36.7c-4.2-1.5-8.5-3-12.7-4.5v41.1H1636.2z" class="st1"/><rect id="XMLID_393_" width="45.5" height="26.4" x="1681.1" y="826.2" class="st2" transform="matrix(-0.9388 -0.3445 0.3445 -0.9388 3014.2466 2214.3665)"/><rect id="XMLID_391_" width="56.8" height="32.3" x="1627.4" y="805.6" class="st3" transform="matrix(-0.9388 -0.3445 0.3445 -0.9388 2927.2075 2163.6519)"/><rect id="XMLID_390_" width="87.5" height="46" x="1544.3" y="773.9" class="st4" transform="matrix(-0.9388 -0.3445 0.3445 -0.9388 2804.4363 2092.1179)"/><rect id="XMLID_388_" width="9.9" height="61.1" x="1537.4" y="749.5" class="st5" transform="matrix(-0.9388 -0.3445 0.3445 -0.9388 2721.5588 2043.8282)"/><path id="XMLID_387_" d="M1546,755.8c-13.6-4.4-28,1.7-32.5,13.7c-4.5,12.1,2.6,26.1,15.9,31.6" class="st6"/><path id="XMLID_384_" d="M1527.7,762.4c-0.9,0.4-1.9,0.8-2.7,1.3" class="st7"/><path id="XMLID_383_" d="M1539.5,759.1c-2.2,0.1-4.3,0.4-6.4,1" class="st7"/><rect id="XMLID_381_" width="11.3" height="4.3" x="1726.4" y="843" class="st5" transform="matrix(-0.9388 -0.3445 0.3445 -0.9388 3066.8291 2235.2095)"/><rect id="XMLID_380_" width="11.3" height="4.3" x="1724.9" y="847" class="st5" transform="matrix(-0.9388 -0.3445 0.3445 -0.9388 3062.5686 2242.5212)"/><rect id="XMLID_378_" width="11.3" height="4.3" x="1723.4" y="851" class="st5" transform="matrix(-0.9388 -0.3445 0.3445 -0.9388 3058.3083 2249.8333)"/><rect id="XMLID_375_" width="35" height="9.5" x="1612.5" y="868.5" class="st5"/><rect id="XMLID_374_" width="5.1" height="9.5" x="1622.6" y="868.5" class="st5"/><rect id="XMLID_372_" width="5.1" height="9.5" x="1612.5" y="868.5" class="st5"/><rect id="XMLID_371_" width="5.1" height="9.5" x="1617.5" y="868.5" class="st5"/><rect id="XMLID_369_" width="5.1" height="9.5" x="1632.7" y="868.5" class="st5"/><rect id="XMLID_368_" width="5.1" height="9.5" x="1627.7" y="868.5" class="st5"/><rect id="XMLID_365_" width="5.1" height="9.5" x="1637.8" y="868.5" class="st5"/><g id="XMLID_355_"><rect id="XMLID_364_" width="11.6" height="168" x="1624.3" y="877.9" class="st1"/><polygon id="XMLID_362_" points="1593.4 1045.5 1605 1046 1624.3 878.4 1612.7 877.9" class="st1"/><polygon id="XMLID_361_" points="1655.4 1046 1667 1045.5 1647.6 877.9 1636 878.5" class="st1"/><polygon id="XMLID_359_" points="1655.4 1046 1667 1045.4 1664.4 1023.3 1652.8 1023.9" class="st1"/><rect id="XMLID_358_" width="11.6" height="22.6" x="1624.3" y="1023.3" class="st1"/><polygon id="XMLID_356_" points="1593.4 1045.4 1605 1046 1607.6 1023.6 1596 1023.1" class="st1"/></g><g id="XMLID_68_"><rect id="XMLID_718_" width="7" height="211.5" x="1913" y="865.1" class="st8"/><rect id="XMLID_531_" width="12.6" height="211.5" x="1561" y="865.2" class="st9"/><rect id="XMLID_708_" width="12.6" height="211.5" x="1611.1" y="865.2" class="st9"/><rect id="XMLID_712_" width="12.6" height="211.5" x="1662.3" y="865.2" class="st9"/><rect id="XMLID_710_" width="12.6" height="211.5" x="1712.4" y="865.2" class="st9"/><rect id="XMLID_716_" width="12.6" height="211.5" x="1762" y="865.2" class="st9"/><rect id="XMLID_714_" width="12.6" height="211.5" x="1812.1" y="865.2" class="st9"/><rect id="XMLID_720_" width="12.6" height="211.5" x="1862.9" y="865.1" class="st9"/><rect id="XMLID_520_" width="359" height="10.4" x="1561" y="865.2" class="st9"/><rect id="XMLID_67_" width="359" height="30.6" x="1561" y="1046.1" class="st10"/></g></g><path id="XMLID_600_" d="M351.9,546.6c-44.8-48.2-89.5-96.5-134.3-144.7c48.2,44.8,96.5,89.5,144.7,134.3 c12.2,12.2,19.9,24.6,17.1,27.5S364.2,558.8,351.9,546.6z" class="st11"/><path id="XMLID_598_" d="M210.4,153.7C174,112.5,137.6,71.4,101.2,30.3c41.1,36.4,82.2,72.9,123.3,109.3 c10.2,10.2,15.4,21.7,11.5,25.6C232.2,169.1,220.6,163.8,210.4,153.7z" class="st12"/><path id="XMLID_73_" d="M127.5,563.8c-28.9-31-57.7-61.9-86.6-92.9c31,28.9,61.9,57.7,92.9,86.6 c7.9,7.9,12.9,15.7,11.2,17.5C143.3,576.8,135.4,571.7,127.5,563.8z" class="st13"/><path id="XMLID_76_" d="M246.2,888.8C182.2,821,118.3,753.2,54.4,685.4c67.8,63.9,135.6,127.8,203.4,191.8 c17.3,17.3,28.9,34.2,25.7,37.4C280.3,917.8,263.5,906.1,246.2,888.8z" class="st13"/><path id="XMLID_71_" d="M1783.9,235.9c-59.5-63.4-119.1-126.8-178.6-190.2c63.4,59.5,126.8,119.1,190.2,178.6 c16.2,16.2,26.8,32.1,23.7,35.2C1815.9,262.7,1800,252.1,1783.9,235.9z" class="st11"/><path id="XMLID_70_" d="M1771.3,705.4c-50.4-55.1-100.7-110.3-151.1-165.4c55.1,50.4,110.3,100.7,165.4,151.1 c13.9,13.9,22,28.5,18.1,32.4S1785.2,719.3,1771.3,705.4z" class="st11"/><path id="XMLID_72_" d="M1858.2,506.6c-28.6-31.2-57.2-62.5-85.8-93.7c31.2,28.6,62.5,57.2,93.7,85.8 c7.9,7.9,12.5,16.1,10.4,18.3C1874.3,519.1,1866.1,514.4,1858.2,506.6z" class="st14"/><circle id="XMLID_74_" cx="67.6" cy="300.1" r="6" class="st11"/><circle id="XMLID_75_" cx="231.9" cy="683.3" r="2" class="st11"/><circle id="XMLID_77_" cx="40.9" cy="78.1" r="1.5" class="st11"/><circle id="XMLID_78_" cx="73.6" cy="825.1" r="2.5" class="st13"/><circle id="XMLID_79_" cx="217.6" cy="949.6" r="6" class="st11"/><circle id="XMLID_80_" cx="1525" cy="98.4" r="6" class="st13"/><circle id="XMLID_81_" cx="298.8" cy="72.1" r="6" class="st11"/><circle id="XMLID_1_" cx="1862.9" cy="189.1" r="6" class="st11"/><circle id="XMLID_2_" cx="1635.3" cy="395.8" r="6" class="st11"/><circle id="XMLID_3_" cx="1883" cy="800.2" r="6" class="st11"/><circle id="XMLID_4_" cx="1573.6" cy="707.6" r="2.5" class="st13"/><circle id="XMLID_5_" cx="1804.7" cy="564.2" r="2.5" class="st13"/><circle id="XMLID_6_" cx="337.6" cy="221.6" r="2.5" class="st13"/><rect id="XMLID_7_" width="645.1" height="15.2" y="1064.7"/><rect id="XMLID_8_" width="14.6" height="61.8" x="1525" y="1010.6"/><rect id="XMLID_9_" width="55" height="203.8" x="101.2" y="868.5"/><rect id="XMLID_10_" width="35" height="56.8" x="156.1" y="1015.6"/><rect id="XMLID_11_" width="265.5" height="30.9" x="325.6" y="1041.5"/><rect id="XMLID_12_" width="31.5" height="66" x="325.6" y="999.1"/><rect id="XMLID_13_" width="84.5" height="50.8" x="250.6" y="1021.6"/><rect id="XMLID_14_" width="54.4" height="175.5" y="889.6"/><rect id="XMLID_15_" width="26.6" height="101.3" x="380" y="955.6"/><rect id="XMLID_16_" width="115.5" height="50.7" x="475.6" y="1006.2"/><rect id="XMLID_20_" width="24" height="78" x="357.1" y="984.3"/><rect id="XMLID_21_" width="24.2" height="89.8" x="1488.1" y="982.6"/><rect id="XMLID_23_" width="33.7" height="95" x="42.4" y="977.3"/><rect id="XMLID_24_" width="456.7" height="15.2" x="1463.3" y="1064.7"/></svg>