<svg xmlns="http://www.w3.org/2000/svg" xmlns:svg="http://www.w3.org/2000/svg" id="svg99" x="0" y="0" version="1.1" viewBox="0 0 1920 1080" xml:space="preserve" style="enable-background:new 0 0 1920 1080"><metadata id="metadata105"/><style id="style2" type="text/css">.st0{fill:#212121}.st1{fill:#f58981}.st2{fill:none;stroke:#f58981;stroke-width:4;stroke-miterlimit:10}.st3{opacity:.8;fill:#facdd2}.st4{fill:#9cdae6}.st5{fill:none;stroke:#9cdae6;stroke-width:4;stroke-miterlimit:10}.st6{fill:#b8d54b}.st7{fill:#e57373}.st8{fill:none;stroke:#b8d54b;stroke-width:4;stroke-miterlimit:10}.st9{fill:#8e99cd}.st10{fill:#ffd181}.st11{fill:#70b2e2}.st12{fill:#faa629}.st13{fill:#5e6bb2}.st14{fill:#66bb6a}.st15{fill:#faf291}</style><g id="Layer_2"><rect id="XMLID_1_" width="1920" height="1080" class="st0"/></g><g id="Layer_3"><rect id="XMLID_11_" width="202.6" height="908.9" x="118.4" y="168" class="st1"/><rect id="XMLID_10_" width="193.8" height="903.7" x="123.2" y="173.2"/><path id="XMLID_16_" d="M206,513h-51c-6.1,0-11-4.9-11-11v-51c0-6.1,4.9-11,11-11h51c6.1,0,11,4.9,11,11v51 C217,508.1,212.1,513,206,513z" class="st1"/><path id="XMLID_15_" d="M310,513h-51c-6.1,0-11-4.9-11-11v-51c0-6.1,4.9-11,11-11h51c6.1,0,11,4.9,11,11v51 C321,508.1,316.1,513,310,513z" class="st2"/><path id="XMLID_75_" d="M197.8,504.8h-34.5c-6.1,0-11-4.9-11-11v-34.5c0-6.1,4.9-11,11-11h34.5c6.1,0,11,4.9,11,11 v34.5C208.8,499.8,203.8,504.8,197.8,504.8z" class="st3"/><path id="XMLID_14_" d="M206,408h-51c-6.1,0-11-4.9-11-11v-51c0-6.1,4.9-11,11-11h51c6.1,0,11,4.9,11,11v51 C217,403.1,212.1,408,206,408z" class="st2"/><rect id="XMLID_7_" width="169.2" height="728.6" x="0" y="350" class="st4"/><rect id="XMLID_6_" width="161.9" height="724.5" x="4" y="354.2"/><rect id="XMLID_17_" width="37" height="181" x="99.9" y="386" class="st5"/><rect id="XMLID_5_" width="198.9" height="541.5" x="118.4" y="538.5" class="st6"/><rect id="XMLID_19_" width="37" height="181" x="99.9" y="610" class="st5"/><rect id="XMLID_18_" width="37" height="181" x="27" y="612" class="st5"/><rect id="XMLID_21_" width="37" height="181" x="99.9" y="834" class="st5"/><rect id="XMLID_20_" width="37" height="181" x="27" y="836" class="st4"/><rect id="XMLID_4_" width="194" height="538.5" x="123.2" y="541.5"/><path id="XMLID_9_" d="M206,300h-51c-6.1,0-11-4.9-11-11v-51c0-6.1,4.9-11,11-11h51c6.1,0,11,4.9,11,11v51 C217,295.1,212.1,300,206,300z" class="st1"/><path id="XMLID_73_" d="M197.8,291.8h-34.5c-6.1,0-11-4.9-11-11v-34.5c0-6.1,4.9-11,11-11h34.5c6.1,0,11,4.9,11,11 v34.5C208.8,286.8,203.8,291.8,197.8,291.8z" class="st3"/><path id="XMLID_12_" d="M310,300h-51c-6.1,0-11-4.9-11-11v-51c0-6.1,4.9-11,11-11h51c6.1,0,11,4.9,11,11v51 C321,295.1,316.1,300,310,300z" class="st2"/><path id="XMLID_13_" d="M310,408h-51c-6.1,0-11-4.9-11-11v-51c0-6.1,4.9-11,11-11h51c6.1,0,11,4.9,11,11v51 C321,403.1,316.1,408,310,408z" class="st1"/><path id="XMLID_74_" d="M301.9,399.9h-34.9c-6.1,0-11-4.9-11-11v-34.9c0-6.1,4.9-11,11-11h34.9c6.1,0,11,4.9,11,11 v34.9C312.9,395,308,399.9,301.9,399.9z" class="st7"/><rect id="XMLID_22_" width="211" height="49.5" x="144" y="573" class="st8"/><rect id="XMLID_8_" width="37" height="181" x="27" y="388" class="st4"/><rect id="XMLID_23_" width="211" height="49.5" x="142.5" y="651" class="st6"/><rect id="XMLID_25_" width="211" height="49.5" x="143.3" y="729.3" class="st8"/><rect id="XMLID_24_" width="211" height="49.5" x="141.8" y="807.3" class="st6"/><rect id="XMLID_27_" width="211" height="49.5" x="142.5" y="881.5" class="st6"/><rect id="XMLID_26_" width="211" height="49.5" x="141" y="959.5" class="st8"/><rect id="XMLID_28_" width="211" height="39.1" x="141" y="1039.5" class="st6"/><rect id="XMLID_29_" width="43.5" height="87.5" x="227.5" y="451" class="st6"/><rect id="XMLID_30_" width="46.3" height="30.5" x="271" y="508" class="st6"/><rect id="XMLID_31_" width="13.7" height="43.7" x="118.4" y="494.7" class="st6"/><rect id="XMLID_32_" width="26" height="80.5" x="132" y="459.5" class="st6"/><rect id="XMLID_33_" width="141" height="21.9" x="130" y="516.6" class="st6"/><rect id="XMLID_34_" width="24" height="31.5" x="205.8" y="494.7" class="st6"/><rect id="XMLID_35_" width="20" height="74" y="276" class="st4"/><rect id="XMLID_36_" width="149.2" height="24" x="20" y="326" class="st4"/><rect id="XMLID_37_" width="27.5" height="74" x="141.8" y="276" class="st4"/><rect id="XMLID_38_" width="145.5" height="11" x="10" y="295" class="st4"/><rect id="XMLID_39_" width="4.8" height="33.2" x="118.4" y="140" class="st1"/><rect id="XMLID_40_" width="209.6" height="9" x="118.4" y="131" class="st1"/><rect id="XMLID_42_" width="6.5" height="28" x="174" y="140" class="st1"/><rect id="XMLID_41_" width="6.5" height="28" x="231.8" y="140" class="st1"/><rect id="XMLID_43_" width="6.5" height="28" x="281.3" y="140" class="st1"/><rect id="XMLID_47_" width="240" height="876.6" x="1680" y="201.1" class="st9"/><rect id="XMLID_46_" width="229.6" height="865.8" x="1685.7" y="212"/><rect id="XMLID_58_" width="240" height="10" x="1680.2" y="749.3" class="st9"/><rect id="XMLID_57_" width="240" height="10" x="1680.2" y="825.3" class="st9"/><rect id="XMLID_53_" width="240" height="10" x="1680.5" y="532.8" class="st9"/><rect id="XMLID_56_" width="240" height="10" x="1679.7" y="597.5" class="st9"/><rect id="XMLID_55_" width="240" height="10" x="1679.7" y="673.5" class="st9"/><rect id="XMLID_54_" width="240" height="10" x="1680.5" y="456.8" class="st9"/><rect id="XMLID_60_" width="240" height="10" x="1679.5" y="890.1" class="st9"/><rect id="XMLID_59_" width="240" height="10" x="1679.5" y="966.1" class="st9"/><rect id="XMLID_62_" width="240" height="10" x="1680" y="1041.9" class="st9"/><rect id="XMLID_67_" width="169" height="71" x="1697" y="602.5" class="st9"/><rect id="XMLID_69_" width="169" height="71" x="1706" y="895.5" class="st9"/><rect id="XMLID_70_" width="169" height="71" x="1706" y="973.5" class="st9"/><rect id="XMLID_45_" width="169.2" height="649.5" x="1595" y="426.1" class="st10"/><rect id="XMLID_44_" width="161.9" height="635.6" x="1599" y="440"/><rect id="XMLID_48_" width="193.4" height="115.3" x="1567.6" y="494.7" class="st10"/><rect id="XMLID_49_" width="193.4" height="115.3" x="1567.6" y="714.3" class="st10"/><rect id="XMLID_79_" width="193.4" height="115.3" x="1567.6" y="714.3" class="st10"/><rect id="XMLID_50_" width="193.4" height="115.3" x="1567.6" y="931" class="st10"/><rect id="XMLID_51_" width="240" height="10" x="1680" y="305" class="st9"/><rect id="XMLID_52_" width="240" height="10" x="1680" y="381" class="st9"/><rect id="XMLID_61_" width="12" height="868.1" x="1866" y="212" class="st9"/><rect id="XMLID_63_" width="42" height="103" x="1878" y="212" class="st9"/><rect id="XMLID_64_" width="42.5" height="75.8" x="1878" y="391" class="st9"/><rect id="XMLID_66_" width="40.3" height="68.5" x="1875" y="682.3" class="st9"/><rect id="XMLID_65_" width="45.3" height="74.4" x="1875" y="750.9" class="st9"/><rect id="XMLID_68_" width="186.3" height="71" x="1679.7" y="314.5" class="st9"/><rect id="XMLID_71_" width="239.5" height="27.9" x="1680.5" y="173.2" class="st9"/><rect id="XMLID_72_" width="29.1" height="66.2" x="1866" y="121" class="st9"/><rect id="XMLID_76_" width="18.5" height="90.5" x="36.3" y="471.3" class="st11"/><rect id="XMLID_77_" width="18.5" height="90.5" x="36.3" y="854.9" class="st11"/><rect id="XMLID_78_" width="146.5" height="87.4" x="1575.6" y="508.7" class="st12"/><rect id="XMLID_80_" width="146.5" height="87.4" x="1612.4" y="737.9" class="st12"/><rect id="XMLID_81_" width="146.5" height="87.4" x="1575.6" y="944.9" class="st12"/><rect id="XMLID_82_" width="148.5" height="56.6" x="1684.7" y="321.7" class="st13"/><rect id="XMLID_83_" width="29.1" height="71.4" x="1887" y="225.1" class="st13"/><rect id="XMLID_84_" width="29.1" height="71.4" x="1887" y="385.5" class="st13"/><rect id="XMLID_85_" width="29.1" height="71.4" x="1833.3" y="603.7" class="st13"/><rect id="XMLID_86_" width="29.1" height="71.4" x="1775.9" y="602.3" class="st13"/><rect id="XMLID_87_" width="29.1" height="141.8" x="1884.5" y="683.5" class="st13"/><rect id="XMLID_88_" width="29.1" height="141.8" x="1833.3" y="900.2" class="st13"/><rect id="XMLID_89_" width="29.1" height="141.8" x="1775.9" y="900.2" class="st13"/><rect id="XMLID_90_" width="168.5" height="39.5" x="163.8" y="656" class="st14"/><rect id="XMLID_91_" width="162.1" height="36.8" x="165.9" y="815" class="st14"/><rect id="XMLID_92_" width="134.8" height="30.6" x="182.1" y="1043.8" class="st14"/></g><g id="Layer_1"><rect id="XMLID_3_" width="1285.5" height="1076.9" x="317.3" class="st15"/><rect id="XMLID_2_" width="1278" height="1080" x="321"/></g></svg>