<svg xmlns="http://www.w3.org/2000/svg" xmlns:xlink="http://www.w3.org/1999/xlink" x="0" y="0" version="1.1" viewBox="0 0 1920 1080" xml:space="preserve" style="enable-background:new 0 0 1920 1080"><style type="text/css">.st0{fill:#fafbfb}.st1{fill:#546e7a}.st2{fill:#8d6e63}.st3{fill:#a1887f}.st4{fill:#f58967}.st5{fill:#71cddd}.st6{fill:#d0d8dc}.st7{fill:#bdaaa4}.st8{fill:#81c784}.st9{fill:#4daf4e}.st10{fill:#38a4dd}.st11{fill:#8caedc}.st12{fill:none;stroke:#455b65;stroke-miterlimit:10}.st13{fill:#f6ec13}.st14{fill:#757576}.st15{fill:#9d9d9d}.st16{fill:#90a4ae}.st17{fill:#795649}.st18{fill:#84cba1}.st19{fill:#fbaa19}.st20{fill:#f2f8e9}.st21{fill:#ef4481}.st22{fill:#f47c20}.st23{fill:#25a69a}.st24{fill:#f06392}.st25{fill:#692c90}.st26{fill:#ffe081}.st27{fill:#e1f3f7}.st28{fill:#bdbdbd}.st29{fill:#b29dcb}.st30{fill:#faf291}.st31{fill:#66bb6a}.st32{fill:#feed57}.st33{fill:#fec111}.st34{fill:#9b51a0}.st35{fill:#70b2e2}.st36{fill:#488fcc}.st37{fill:#62c3a6}.st38{fill:#ef4323}.st39{fill:#b4e0da}.st40{fill:#f48fb1}.st41{fill:#ffd181}.st42{fill:#8351a1}.st43{fill:#89d0c2}.st44{fill:#596ab2}.st45{fill:#f05455}.st46{fill:#78909c}.st47{fill:#263238}.st48{opacity:.57;fill:url(#XMLID_18_)}.st49{fill:url(#XMLID_19_)}.st50{fill:url(#XMLID_20_)}.st51{fill:url(#XMLID_21_)}.st52{fill:url(#XMLID_22_)}.st53{fill:url(#XMLID_23_)}.st54{fill:url(#XMLID_24_)}.st55{fill:url(#XMLID_25_)}.st56{fill:url(#XMLID_26_)}.st57{fill:url(#XMLID_27_)}.st58{fill:url(#XMLID_28_)}.st59{fill:url(#XMLID_29_)}.st60{opacity:.7;fill:url(#XMLID_30_)}.st61{fill:url(#XMLID_31_)}.st62{fill:url(#XMLID_32_)}.st63{fill:url(#XMLID_33_)}.st64{fill:url(#XMLID_34_)}.st65{fill:url(#XMLID_35_)}.st66{fill:url(#XMLID_36_)}.st67{fill:url(#XMLID_37_)}.st68{fill:#95c8ec}.st69{fill:#e4f2fb}.st70{fill:#b5e4fa}.st71{opacity:.2;fill:#95c8ec}.st72{fill:#616262}.st73{fill:#b0bec5}.st74{fill:#eceff0}.st75{fill:#607d8b}.st76{fill:url(#XMLID_38_)}.st77{opacity:.75;fill:url(#XMLID_39_)}.st78{fill:#f05323}.st79{fill:none;stroke:#fafbfb;stroke-miterlimit:10}.st80{fill:url(#XMLID_40_)}.st81{opacity:.75;fill:url(#XMLID_41_)}.st82{fill:url(#XMLID_42_)}.st83{fill:url(#XMLID_43_)}.st84{fill:#9e89c0}.st85{fill:#85d5f7}.st86{fill:#fee580}.st87{fill:#8e99cd}.st88{fill:#ffe0b2}.st89{fill:#36c2d6}</style><g id="Layer_1"><rect id="XMLID_15_" width="1920" height="1080" x=".3" y="0" class="st0"/><rect id="XMLID_14_" width="1920" height="52.8" x=".3" y="1027.2" class="st1"/><path id="XMLID_67_" d="M465.8,853.7" class="st0"/></g><g id="Layer_2"><g id="XMLID_363_"><rect id="XMLID_380_" width="37.3" height="17.8" x="751.7" y="910.7" class="st2"/><rect id="XMLID_379_" width="24.7" height="9.5" x="762.8" y="901.2" class="st3"/><rect id="XMLID_378_" width="43.4" height="30.1" x="854.6" y="898.5" class="st4"/><rect id="XMLID_377_" width="12" height="27.3" x="842.6" y="901.2" class="st5"/><rect id="XMLID_376_" width="64.7" height="20.8" x="833.3" y="852.7" class="st6"/><rect id="XMLID_375_" width="37.3" height="8.9" x="751.7" y="910.7" class="st7"/><rect id="XMLID_374_" width="48.8" height="23.8" x="742.5" y="962.5" class="st8"/><rect id="XMLID_373_" width="9.3" height="23.8" x="762.8" y="962.5" class="st9"/><rect id="XMLID_372_" width="27" height="12" x="752.8" y="950.5" class="st10"/><rect id="XMLID_371_" width="10.4" height="22.1" x="742.5" y="940.4" class="st11"/><line id="XMLID_370_" x1="833.3" x2="898" y1="862" y2="862" class="st12"/><rect id="XMLID_369_" width="6" height="6" x="862.8" y="859.5" class="st13"/><rect id="XMLID_368_" width="10.3" height="166.2" x="732.2" y="861.2" class="st14"/><rect id="XMLID_367_" width="10.3" height="166.2" x="898" y="862" class="st14"/><rect id="XMLID_366_" width="155.5" height="11.8" x="742.5" y="986.3" class="st15"/><rect id="XMLID_365_" width="155.5" height="11.8" x="742.5" y="928.5" class="st15"/><rect id="XMLID_364_" width="155.5" height="11.8" x="742.5" y="873.5" class="st15"/></g><g id="XMLID_359_"><rect id="XMLID_362_" width="150" height="262.1" x="56.1" y="765.1" class="st6"/><rect id="XMLID_361_" width="123.5" height="233.4" x="69.3" y="793.8" class="st16"/><path id="XMLID_360_" d="M195.8,805H66.3c-6.6,0-12-5.4-12-12v-21.8c0-6.6,5.4-12,12-12h129.5c6.6,0,12,5.4,12,12V793 C207.8,799.6,202.4,805,195.8,805z" class="st1"/></g><g id="XMLID_349_"><rect id="XMLID_352_" width="150" height="262.1" x="1742.2" y="765.1" class="st6"/><rect id="XMLID_351_" width="123.5" height="233.4" x="1755.5" y="793.8" class="st16"/><path id="XMLID_350_" d="M1882,805h-129.5c-6.6,0-12-5.4-12-12v-21.8c0-6.6,5.4-12,12-12H1882c6.6,0,12,5.4,12,12V793 C1894,799.6,1888.6,805,1882,805z" class="st1"/></g><g id="XMLID_290_"><rect id="XMLID_348_" width="164.6" height="250.3" x="546.1" y="776" class="st3"/><rect id="XMLID_347_" width="141" height="216" x="558.1" y="792" class="st17"/><g id="XMLID_340_"><rect id="XMLID_346_" width="11.5" height="33.3" x="687.3" y="974.8" class="st18"/><rect id="XMLID_345_" width="9.5" height="34.5" x="666.5" y="973.6" class="st19" transform="matrix(-0.9303 -0.3668 0.3668 -0.9303 932.2567 2158.9011)"/><rect id="XMLID_344_" width="6.7" height="35.5" x="679.5" y="972.8" class="st20"/><rect id="XMLID_343_" width="5.8" height="34.5" x="654.7" y="973.6" class="st21"/><rect id="XMLID_342_" width="6" height="33.3" x="648.7" y="974.8" class="st22"/><rect id="XMLID_341_" width="10.5" height="30.7" x="634.4" y="977.6" class="st23" transform="matrix(-0.9478 -0.3189 0.3189 -0.9478 929.2329 2138.0613)"/></g><g id="XMLID_336_"><rect id="XMLID_339_" width="7.2" height="33.3" x="579.3" y="915" class="st24"/><rect id="XMLID_338_" width="8.2" height="27.2" x="571.1" y="921.2" class="st25"/><rect id="XMLID_337_" width="6" height="32.3" x="561.7" y="916" class="st26" transform="matrix(0.9767 -0.2147 0.2147 0.9767 -186.9978 143.0169)"/></g><g id="XMLID_331_"><rect id="XMLID_335_" width="6.4" height="34.5" x="581.7" y="829.6" class="st27"/><rect id="XMLID_334_" width="6.2" height="30.5" x="575.6" y="833.6" class="st28"/><rect id="XMLID_333_" width="8" height="27.2" x="567.6" y="837" class="st29"/><rect id="XMLID_332_" width="7.8" height="32" x="559.7" y="832.1" class="st30"/></g><rect id="XMLID_330_" width="141" height="9.5" x="558.1" y="822.5" class="st7"/><rect id="XMLID_329_" width="141" height="9.5" x="558.1" y="864.4" class="st7"/><rect id="XMLID_328_" width="141" height="9.5" x="558.1" y="906.4" class="st7"/><rect id="XMLID_327_" width="141" height="9.5" x="558.1" y="948.3" class="st7"/><g id="XMLID_320_"><rect id="XMLID_326_" width="11.5" height="33.3" x="559.7" y="789.1" class="st18"/><rect id="XMLID_325_" width="6.7" height="35.5" x="572.4" y="787.1" class="st31"/><rect id="XMLID_324_" width="9.5" height="34.5" x="582.6" y="788" class="st31" transform="matrix(0.9303 -0.3668 0.3668 0.9303 -254.415 271.5496)"/><rect id="XMLID_323_" width="5.8" height="34.5" x="598.1" y="788" class="st32"/><rect id="XMLID_322_" width="6" height="33.3" x="603.9" y="789.1" class="st33"/><rect id="XMLID_321_" width="11.7" height="25.8" x="609.9" y="796.6" class="st34"/></g><g id="XMLID_314_"><rect id="XMLID_319_" width="10.5" height="30.7" x="649.6" y="834.3" class="st35"/><rect id="XMLID_318_" width="10.5" height="36.2" x="660.1" y="828.7" class="st36"/><rect id="XMLID_317_" width="7.2" height="33.3" x="670.6" y="831.5" class="st24"/><rect id="XMLID_316_" width="8.2" height="27.2" x="677.8" y="837.7" class="st26"/><rect id="XMLID_315_" width="6" height="32.3" x="689.3" y="832.5" class="st26" transform="matrix(-0.9767 -0.2147 0.2147 -0.9767 1186.248 1826.202)"/></g><g id="XMLID_309_"><rect id="XMLID_313_" width="6.4" height="34.5" x="670.7" y="788" class="st37"/><rect id="XMLID_312_" width="6.2" height="30.5" x="677.1" y="792" class="st28"/><rect id="XMLID_311_" width="8" height="27.2" x="683.2" y="795.3" class="st38"/><rect id="XMLID_310_" width="7.8" height="32" x="691.2" y="790.5" class="st30"/></g><path id="XMLID_306_" d="M546.1,776v250.3h164.6V776H546.1z M699.1,1008h-141V792h141V1008z" class="st3"/><g id="XMLID_300_"><rect id="XMLID_305_" width="11.5" height="33.3" x="560.3" y="873.1" class="st39"/><rect id="XMLID_304_" width="9.5" height="34.5" x="583.2" y="872" class="st19" transform="matrix(0.9303 -0.3668 0.3668 0.9303 -285.1834 277.6281)"/><rect id="XMLID_303_" width="6.7" height="35.5" x="573" y="871.1" class="st40"/><rect id="XMLID_302_" width="5.8" height="34.5" x="593.4" y="871.6" class="st21" transform="matrix(0.9309 -0.3652 0.3652 0.9309 -283.4538 279.2121)"/><rect id="XMLID_301_" width="10.5" height="30.7" x="601" y="875.1" class="st41" transform="matrix(0.9478 -0.3189 0.3189 0.9478 -252.3237 239.8173)"/></g><g id="XMLID_291_"><rect id="XMLID_299_" width="7.2" height="33.3" x="647.1" y="914.5" class="st37"/><rect id="XMLID_298_" width="8.2" height="27.2" x="654.2" y="920.6" class="st42"/><rect id="XMLID_297_" width="6" height="32.3" x="663" y="915.5" class="st26" transform="matrix(-0.9994 -3.430670e-002 3.430670e-002 -0.9994 1299.5787 1885.5656)"/><rect id="XMLID_296_" width="6.4" height="34.5" x="670.1" y="913.3" class="st27"/><rect id="XMLID_295_" width="6.2" height="30.5" x="676.5" y="917.3" class="st43"/><rect id="XMLID_294_" width="8" height="27.2" x="682.7" y="920.6" class="st44"/><rect id="XMLID_293_" width="7.8" height="32" x="690.7" y="915.8" class="st30"/><rect id="XMLID_292_" width="7.2" height="33.3" x="638.7" y="915" class="st45"/></g></g><path id="XMLID_289_" d="M363.2,728.3H48.9c-6.6,0-12-5.4-12-12V558.9c0-6.6,5.4-12,12-12h314.3c6.6,0,12,5.4,12,12 v157.4C375.2,722.9,369.8,728.3,363.2,728.3z" class="st46"/><path id="XMLID_288_" d="M353.9,723.3H58.2c-6.6,0-12-5.4-12-12V563.8c0-6.6,5.4-12,12-12h295.8c6.6,0,12,5.4,12,12 v147.5C365.9,717.9,360.5,723.3,353.9,723.3z" class="st47"/><linearGradient id="XMLID_18_" x1="50.31" x2="275.478" y1="667.032" y2="667.032" gradientUnits="userSpaceOnUse"><stop offset="0" style="stop-color:#faf291"/><stop offset=".685" style="stop-color:#84cba1"/><stop offset="1" style="stop-color:#71cddd"/></linearGradient><path id="XMLID_287_" d="M98.6,630.9c-30.6,21.3-47.3,54.9-48.3,89.5c2.1,1.8,4.9,3,7.9,3h217.3 c0-22.2-6.5-44.7-20.2-64.3C219.8,608,149.6,595.4,98.6,630.9z" class="st48"/><linearGradient id="XMLID_19_" x1="64.412" x2="261.332" y1="673.315" y2="673.315" gradientUnits="userSpaceOnUse"><stop offset="0" style="stop-color:#faf291"/><stop offset=".685" style="stop-color:#84cba1"/><stop offset="1" style="stop-color:#71cddd"/></linearGradient><path id="XMLID_286_" d="M106.7,640.9c-28,19.4-42.7,50.8-42.2,82.4h196.9c0.3-19.9-5.4-40.2-17.6-57.8 C212.7,620.9,151.3,609.9,106.7,640.9z" class="st49"/><linearGradient id="XMLID_20_" x1="91.009" x2="365.009" y1="524.847" y2="669.347" gradientUnits="userSpaceOnUse"><stop offset="0" style="stop-color:#5981c1;stop-opacity:0"/><stop offset="1" style="stop-color:#fafbfb"/></linearGradient><circle id="XMLID_285_" cx="316.6" cy="643.8" r="8.5" class="st50"/><linearGradient id="XMLID_21_" x1="64.662" x2="338.663" y1="574.804" y2="719.304" gradientUnits="userSpaceOnUse"><stop offset="0" style="stop-color:#5981c1;stop-opacity:0"/><stop offset="1" style="stop-color:#fafbfb"/></linearGradient><circle id="XMLID_284_" cx="70.8" cy="578.1" r="4.3" class="st51"/><linearGradient id="XMLID_22_" x1="55.686" x2="329.686" y1="591.824" y2="736.324" gradientUnits="userSpaceOnUse"><stop offset="0" style="stop-color:#5981c1;stop-opacity:0"/><stop offset="1" style="stop-color:#fafbfb"/></linearGradient><circle id="XMLID_283_" cx="286.5" cy="713.6" r="1.8" class="st52"/><linearGradient id="XMLID_23_" x1="71.456" x2="345.456" y1="561.922" y2="706.422" gradientUnits="userSpaceOnUse"><stop offset="0" style="stop-color:#5981c1;stop-opacity:0"/><stop offset="1" style="stop-color:#fafbfb"/></linearGradient><circle id="XMLID_282_" cx="354.9" cy="711.4" r="2.1" class="st53"/><linearGradient id="XMLID_24_" x1="122.844" x2="396.844" y1="464.48" y2="608.98" gradientUnits="userSpaceOnUse"><stop offset="0" style="stop-color:#5981c1;stop-opacity:0"/><stop offset="1" style="stop-color:#fafbfb"/></linearGradient><circle id="XMLID_281_" cx="326.8" cy="572.1" r="1.8" class="st54"/><linearGradient id="XMLID_25_" x1="93.682" x2="367.682" y1="519.778" y2="664.278" gradientUnits="userSpaceOnUse"><stop offset="0" style="stop-color:#5981c1;stop-opacity:0"/><stop offset="1" style="stop-color:#fafbfb"/></linearGradient><circle id="XMLID_280_" cx="271.4" cy="613.5" r="2.8" class="st55"/><linearGradient id="XMLID_26_" x1="40.652" x2="314.652" y1="620.333" y2="764.833" gradientUnits="userSpaceOnUse"><stop offset="0" style="stop-color:#5981c1;stop-opacity:0"/><stop offset="1" style="stop-color:#fafbfb"/></linearGradient><circle id="XMLID_279_" cx="63.8" cy="632.6" r="2.8" class="st56"/><linearGradient id="XMLID_27_" x1="65.486" x2="339.486" y1="573.243" y2="717.743" gradientUnits="userSpaceOnUse"><stop offset="0" style="stop-color:#5981c1;stop-opacity:0"/><stop offset="1" style="stop-color:#fafbfb"/></linearGradient><circle id="XMLID_278_" cx="116.3" cy="600.1" r="2.8" class="st57"/><linearGradient id="XMLID_28_" x1="97.174" x2="371.174" y1="513.155" y2="657.655" gradientUnits="userSpaceOnUse"><stop offset="0" style="stop-color:#5981c1;stop-opacity:0"/><stop offset="1" style="stop-color:#fafbfb"/></linearGradient><circle id="XMLID_277_" cx="200.3" cy="567.6" r="2.8" class="st58"/><g id="XMLID_264_"><path id="XMLID_275_" d="M1881.7,737.4h-314.3c-6.6,0-12-5.4-12-12V568c0-6.6,5.4-12,12-12h314.3c6.6,0,12,5.4,12,12 v157.4C1893.7,732,1888.3,737.4,1881.7,737.4z" class="st1"/><path id="XMLID_274_" d="M1868.3,730.2h-287.5c-6.6,0-12-5.4-12-12v-143c0-6.6,5.4-12,12-12h287.5 c6.6,0,12,5.4,12,12v143C1880.3,724.8,1874.9,730.2,1868.3,730.2z" class="st47"/><linearGradient id="XMLID_29_" x1="1747.017" x2="1880.254" y1="641.571" y2="641.571" gradientUnits="userSpaceOnUse"><stop offset="0" style="stop-color:#5981c1"/><stop offset=".537" style="stop-color:#a55ea6"/><stop offset="1" style="stop-color:#faaa43"/></linearGradient><path id="XMLID_273_" d="M1868.3,563.2h-84.1c-2.1,1.5-4.2,3-6.2,4.7c-36.5,30.4-41.4,84.6-11,121.1 c28.3,34,77.2,40.6,113.3,16.8V575.2C1880.3,568.6,1874.9,563.2,1868.3,563.2z" class="st59"/><linearGradient id="XMLID_30_" x1="1732.901" x2="1880.254" y1="646.728" y2="646.728" gradientUnits="userSpaceOnUse"><stop offset="0" style="stop-color:#5981c1;stop-opacity:0"/><stop offset="1" style="stop-color:#faaa43"/></linearGradient><path id="XMLID_272_" d="M1868.3,563.2h-106.1c-36.2,36.2-39.5,94.7-6.1,134.8c13.4,16.1,30.8,26.9,49.5,32.2h54.8 c6.5-1.8,12.8-4.4,18.9-7.6c0.6-1.4,0.9-2.9,0.9-4.4v-143C1880.3,568.6,1874.9,563.2,1868.3,563.2z" class="st60"/><linearGradient id="XMLID_31_" x1="1709.036" x2="1598.536" y1="593.583" y2="728.083" gradientUnits="userSpaceOnUse"><stop offset="0" style="stop-color:#5981c1;stop-opacity:0"/><stop offset="1" style="stop-color:#fafbfb"/></linearGradient><circle id="XMLID_271_" cx="1707.8" cy="595.1" r="3.6" class="st61"/><linearGradient id="XMLID_32_" x1="1781.58" x2="1671.08" y1="653.183" y2="787.683" gradientUnits="userSpaceOnUse"><stop offset="0" style="stop-color:#5981c1;stop-opacity:0"/><stop offset="1" style="stop-color:#fafbfb"/></linearGradient><circle id="XMLID_270_" cx="1730" cy="715.9" r="5.5" class="st62"/><linearGradient id="XMLID_33_" x1="1678.643" x2="1568.143" y1="568.614" y2="703.114" gradientUnits="userSpaceOnUse"><stop offset="0" style="stop-color:#5981c1;stop-opacity:0"/><stop offset="1" style="stop-color:#fafbfb"/></linearGradient><circle id="XMLID_269_" cx="1592.5" cy="673.4" r="9" class="st63"/><linearGradient id="XMLID_34_" x1="1730.009" x2="1619.509" y1="610.814" y2="745.314" gradientUnits="userSpaceOnUse"><stop offset="0" style="stop-color:#5981c1;stop-opacity:0"/><stop offset="1" style="stop-color:#fafbfb"/></linearGradient><circle id="XMLID_268_" cx="1650.2" cy="708" r="3.6" class="st64"/><linearGradient id="XMLID_35_" x1="1637.493" x2="1526.993" y1="534.807" y2="669.307" gradientUnits="userSpaceOnUse"><stop offset="0" style="stop-color:#5981c1;stop-opacity:0"/><stop offset="1" style="stop-color:#fafbfb"/></linearGradient><circle id="XMLID_267_" cx="1604.5" cy="574.9" r="3" class="st65"/><linearGradient id="XMLID_36_" x1="1676.655" x2="1566.155" y1="566.981" y2="701.481" gradientUnits="userSpaceOnUse"><stop offset="0" style="stop-color:#5981c1;stop-opacity:0"/><stop offset="1" style="stop-color:#fafbfb"/></linearGradient><circle id="XMLID_266_" cx="1636" cy="616.4" r="2" class="st66"/><linearGradient id="XMLID_37_" x1="1661.914" x2="1880.254" y1="654.68" y2="654.68" gradientUnits="userSpaceOnUse"><stop offset="0" style="stop-color:#5981c1;stop-opacity:0"/><stop offset="1" style="stop-color:#faaa43"/></linearGradient><path id="XMLID_265_" d="M1880.3,647.7c-17.6-0.3-36.6-0.5-56.5-0.5c-89.4,0-161.8,3.3-161.8,7.5s72.4,7.5,161.8,7.5 c19.9,0,38.9-0.2,56.5-0.5V647.7z" class="st67"/></g><g id="XMLID_16_"><g id="XMLID_155_"><g id="XMLID_205_"><path id="XMLID_209_" d="M1294.1,898.6c3.2,0,3.2-5,0-5C1290.9,893.6,1290.9,898.6,1294.1,898.6L1294.1,898.6z" class="st0"/></g></g><rect id="XMLID_358_" width="122" height="250.1" x="1191.8" y="777.1" class="st16"/><rect id="XMLID_357_" width="106.4" height="224" x="1199.6" y="789.1" class="st68"/><rect id="XMLID_356_" width="100" height="216" x="1202.8" y="793.1" class="st69"/><rect id="XMLID_355_" width="7.5" height="216" x="1252.8" y="793.1" class="st68"/><path id="XMLID_354_" d="M1267.6,910.1L1267.6,910.1c-1.5,0-2.8-1.2-2.8-2.8v-33.7c0-1.5,1.2-2.8,2.8-2.8l0,0 c1.5,0,2.8,1.2,2.8,2.8v33.7C1270.3,908.8,1269.1,910.1,1267.6,910.1z" class="st70"/><path id="XMLID_353_" d="M1243.8,910.1L1243.8,910.1c-1.5,0-2.8-1.2-2.8-2.8v-33.7c0-1.5,1.2-2.8,2.8-2.8l0,0 c1.5,0,2.8,1.2,2.8,2.8v33.7C1246.6,908.8,1245.3,910.1,1243.8,910.1z" class="st70"/><polygon id="XMLID_263_" points="1302.8 888.6 1302.8 865.1 1273.9 793.1 1264.5 793.1" class="st71"/><polygon id="XMLID_262_" points="1302.8 845.9 1302.8 822.4 1291.1 793.1 1281.6 793.1" class="st71"/></g><g id="XMLID_241_"><rect id="XMLID_261_" width="247.9" height="21.3" x="277.4" y="923.7" class="st72"/><rect id="XMLID_260_" width="14.2" height="82.4" x="288.9" y="945" class="st72"/><rect id="XMLID_259_" width="14.2" height="82.4" x="501" y="945" class="st72"/><rect id="XMLID_258_" width="98.2" height="7.1" x="303.2" y="916.5" class="st16"/><rect id="XMLID_257_" width="83.1" height="55.4" x="311.1" y="861.1" class="st73"/><rect id="XMLID_256_" width="72.5" height="45.6" x="315.9" y="866.1" class="st74"/><g id="XMLID_250_"><circle id="XMLID_255_" cx="458.3" cy="909.5" r="1.1" class="st75"/><linearGradient id="XMLID_38_" x1="439.654" x2="470.591" y1="859.438" y2="885.735" gradientUnits="userSpaceOnUse"><stop offset="0" style="stop-color:#faf291"/><stop offset=".424" style="stop-color:#f36e44"/><stop offset=".739" style="stop-color:#f05455"/><stop offset="1" style="stop-color:#a85ca4"/></linearGradient><circle id="XMLID_254_" cx="457.6" cy="874.7" r="22.1" class="st76"/><linearGradient id="XMLID_39_" x1="518.099" x2="572.239" y1="840.911" y2="840.911" gradientTransform="matrix(-0.7071 -0.7071 0.7071 -0.7071 247.9539 1854.8308)" gradientUnits="userSpaceOnUse"><stop offset="0" style="stop-color:#fafbfb;stop-opacity:0"/><stop offset="1" style="stop-color:#f6ec13"/></linearGradient><circle id="XMLID_253_" cx="457.1" cy="874.7" r="27.1" class="st77"/><polygon id="XMLID_252_" points="458.2 911.6 446.1 923.7 472 923.7" class="st73"/><polygon id="XMLID_251_" points="454.2 902.9 458.2 906.9 462.4 902.7" class="st73"/></g><rect id="XMLID_249_" width="31.4" height="3.4" x="318.7" y="870.2" class="st78"/><rect id="XMLID_248_" width="31.4" height="25" x="318.7" y="878.4" class="st68"/><rect id="XMLID_247_" width="31.7" height="33.1" x="352.6" y="870.2" class="st30"/><circle id="XMLID_246_" cx="362.1" cy="878.4" r="1.1" class="st0"/><circle id="XMLID_245_" cx="379.7" cy="889.4" r="1.5" class="st0"/><circle id="XMLID_244_" cx="361.1" cy="897" r="3.4" class="st0"/><line id="XMLID_243_" x1="362.1" x2="379.7" y1="878.4" y2="889.4" class="st79"/><line id="XMLID_242_" x1="379.7" x2="361.1" y1="889.4" y2="897" class="st79"/></g><g id="XMLID_213_"><rect id="XMLID_240_" width="247.9" height="21.3" x="1436.9" y="923.7" class="st72"/><rect id="XMLID_239_" width="18" height="82.2" x="1652.3" y="945" class="st72"/><rect id="XMLID_238_" width="14.2" height="82.4" x="1447" y="945" class="st72"/><rect id="XMLID_237_" width="98.2" height="7.1" x="1511.8" y="916.5" class="st75"/><rect id="XMLID_236_" width="83.1" height="55.4" x="1519" y="861.1" class="st16"/><rect id="XMLID_235_" width="72.5" height="45.6" x="1524.3" y="866" class="st74"/><circle id="XMLID_234_" cx="1468.4" cy="909" r="1.1" class="st75"/><linearGradient id="XMLID_40_" x1="1444.007" x2="1491.682" y1="877.167" y2="877.167" gradientUnits="userSpaceOnUse"><stop offset="0" style="stop-color:#faf291"/><stop offset="1" style="stop-color:#5ecae7"/></linearGradient><path id="XMLID_233_" d="M1491.7,865.2c0,3.7-22.8,2-27.1,12.6c-3.1,7.7,5.8,16,3.2,18.4 c-2.7,2.5-15.3-3.2-20.7-13.8c-3.5-6.9-4.9-18,0.8-23c3.3-2.9,8.9-2.2,20-0.8C1473.8,859.5,1491.7,861.9,1491.7,865.2z" class="st80"/><linearGradient id="XMLID_41_" x1="-198.362" x2="-134.002" y1="1559.003" y2="1559.003" gradientTransform="matrix(-0.7071 -0.7071 0.7071 -0.7071 247.9539 1854.8308)" gradientUnits="userSpaceOnUse"><stop offset="0" style="stop-color:#fafbfb;stop-opacity:0"/><stop offset="1" style="stop-color:#71cddd"/></linearGradient><circle id="XMLID_232_" cx="1467.8" cy="870" r="32.2" class="st81"/><polygon id="XMLID_231_" points="1468.3 911.1 1456.2 923.1 1482.1 923.1" class="st73"/><polygon id="XMLID_230_" points="1464.3 902.4 1468.3 906.3 1472.5 902.1" class="st73"/><linearGradient id="XMLID_42_" x1="1477.085" x2="1480.918" y1="891.624" y2="879.957" gradientUnits="userSpaceOnUse"><stop offset="0" style="stop-color:#faf291"/><stop offset="1" style="stop-color:#5ecae7"/></linearGradient><path id="XMLID_229_" d="M1471.9,885.5c-0.5-1.6,0.3-3.7,1.8-4.6c2.4-1.5,5,1.5,7.4,0.1c2.3-1.3,1.5-5,3-5.4 c1.5-0.4,4.3,2.6,4.3,5.4c-0.2,4.6-8,8.8-13.1,7.1C1474.6,887.9,1472.5,887.2,1471.9,885.5z" class="st82"/><linearGradient id="XMLID_43_" x1="1473.789" x2="1480.123" y1="873.186" y2="879.686" gradientUnits="userSpaceOnUse"><stop offset="0" style="stop-color:#faf291"/><stop offset="1" style="stop-color:#5ecae7"/></linearGradient><ellipse id="XMLID_228_" cx="1476.3" cy="875.7" class="st83" rx="3.8" ry="2.3"/><rect id="XMLID_227_" width="67.1" height="3.5" x="1527.8" y="870.7" class="st84"/><rect id="XMLID_226_" width="33.6" height="13.4" x="1527.8" y="876.2" class="st30"/><rect id="XMLID_225_" width="31.3" height="13.4" x="1563.7" y="876.2" class="st85"/><rect id="XMLID_224_" width="67.1" height="16.6" x="1527.8" y="892.2" class="st18"/><rect id="XMLID_223_" width="1.8" height="4.6" x="1532.8" y="904.2" class="st86"/><rect id="XMLID_222_" width="2.5" height="9.3" x="1537.2" y="899.6" class="st86"/><rect id="XMLID_221_" width="2.5" height="12" x="1541.9" y="896.9" class="st86"/><rect id="XMLID_220_" width="2.5" height="14.4" x="1546.6" y="894.5" class="st86"/><rect id="XMLID_219_" width="2.5" height="8.3" x="1551.3" y="900.5" class="st86"/><rect id="XMLID_218_" width="2.5" height="12" x="1556" y="896.9" class="st86"/><rect id="XMLID_217_" width="2.5" height="9.3" x="1560.7" y="899.6" class="st86"/><rect id="XMLID_216_" width="2.5" height="8.3" x="1565.5" y="900.5" class="st86"/><rect id="XMLID_215_" width="2.5" height="14.4" x="1570.2" y="894.5" class="st86"/><rect id="XMLID_214_" width="12.9" height="5.8" x="1578.6" y="896.4" class="st6"/></g><g id="XMLID_168_"><path id="XMLID_212_" d="M1347.8,898.1h-7c-1.9-0.9-3.2-2.9-3.1-5c0.1-2,1.3-3.7,3.1-4.6c2.3,0,4.7,0,7,0 c1.8,0.9,2.9,2.8,2.9,4.8C1350.7,895.3,1349.6,897.2,1347.8,898.1z" class="st18"/><rect id="XMLID_211_" width="13" height="12.5" x="1356.4" y="910.6" class="st87"/><rect id="XMLID_210_" width="4.5" height="10.7" x="1360.6" y="899.9" class="st18"/><rect id="XMLID_204_" width="93" height="104.1" x="1329.6" y="923.1" class="st2"/><rect id="XMLID_203_" width="74" height="27.8" x="1338.6" y="940.3" class="st88"/><rect id="XMLID_202_" width="74" height="27.8" x="1338.6" y="981.3" class="st88"/><path id="XMLID_172_" d="M1389.8,963.6h-27.5c-1.2,0-2.1-1-2.1-2.1l0,0c0-1.2,1-2.1,2.1-2.1h27.5 c1.2,0,2.1,1,2.1,2.1l0,0C1391.9,962.6,1391,963.6,1389.8,963.6z" class="st17"/><path id="XMLID_170_" d="M1389.3,1003.4h-27.5c-1.2,0-2.1-1-2.1-2.1l0,0c0-1.2,1-2.1,2.1-2.1h27.5 c1.2,0,2.1,1,2.1,2.1l0,0C1391.4,1002.4,1390.5,1003.4,1389.3,1003.4z" class="st17"/><rect id="XMLID_169_" width="10.2" height="25" x="1339.2" y="898.1" class="st89"/></g></g></svg>