<svg xmlns="http://www.w3.org/2000/svg" xmlns:svg="http://www.w3.org/2000/svg" style="enable-background:new 0 0 1920 1080" id="Layer_1" x="0" y="0" version="1.1" viewBox="0 0 1920 1080" xml:space="preserve"><metadata id="metadata146"/><style id="style2" type="text/css">.st0{fill:#3c3c3c}.st1{opacity:.4;fill:#56c0ee}.st2{opacity:.6;fill:#b4e0da;stroke:#fafbfb;stroke-width:5.6749;stroke-linecap:round;stroke-linejoin:round;stroke-miterlimit:10}.st3{fill:#fafbfb}.st3,.st4,.st5{opacity:.6}.st4{fill:#faf291}.st5{fill:#fef7e2}.st6{fill:#faf291}.st10{fill:none;stroke-width:4;stroke-miterlimit:10}.st7{stroke:#44a9df}.st7,.st8,.st9{fill:none;stroke-width:4;stroke-miterlimit:10}.st8{stroke:#f7901e}.st9{stroke:#8ec73f}.st10{stroke:#6b5ea9}.st11{fill:#546e7a}.st12{stroke:#faf291;stroke-width:4}.st12,.st13,.st14,.st15{fill:none;stroke-miterlimit:10}.st13{stroke:#71cddd;stroke-linecap:round;stroke-linejoin:round}.st13,.st14{stroke-width:4.0109}.st14,.st15{stroke-linecap:round;stroke-linejoin:round}.st14{stroke:#f58981}.st15{stroke:#4d62ad;stroke-width:4}.st16{opacity:.4;fill:#517cbe}.st17{fill:#f05455}.st18{fill:#d41f26}.st19{fill:#feed57}.st20{fill:#f58981}.st21{fill:#8d6e63}.st22{fill:#795649}.st23{fill:#6d4d42}.st24{fill:#f7901e}.st25{fill:#ffd181}.st26{fill:#fef5a0}.st27,.st28{stroke-miterlimit:10}.st27{opacity:.6;fill:#596ab2;stroke:#fafbfb}.st28{fill:none;stroke:#4d62ad;stroke-width:1.2941}.st29,.st30{stroke-width:2}.st29{opacity:.6;fill:#ee2749;stroke:#fafbfb;stroke-miterlimit:10}.st30{fill:none;stroke:#f280aa}.st30,.st31,.st32{stroke-miterlimit:10}.st31{opacity:.6;fill:#71cddd;stroke:#fafbfb}.st32{fill:none;stroke:#5ecae7;stroke-width:1.2941}.st33{fill:#607d8b}.st34{fill:#80cbc4}.st35{opacity:.6;fill:#f6ec13;stroke:#fafbfb;stroke-width:1.2274;stroke-miterlimit:10}.st36,.st37,.st38{fill:none;stroke-miterlimit:10}.st36{stroke:#faf291;stroke-width:1.2274}.st37,.st38{stroke-linecap:round;stroke-linejoin:round}.st37{opacity:.6;stroke:#fafbfb;stroke-width:10}.st38{stroke:#90a4ae;stroke-width:3.0095}.st39{fill:#eceff0}.st40{opacity:.7}.st41{fill:none}.st42{opacity:.4;fill:#85d5f7}.st43{fill:#56c0ee}.st44{fill:#85d5f7}.st45{fill:#9cdae6}.st46{opacity:.6;fill:#85d5f7;stroke:#fafbfb;stroke-width:3.8502;stroke-linecap:round;stroke-linejoin:round;stroke-miterlimit:10}.st47,.st48{opacity:.5;fill:#faf291}.st48{fill:#fafbfb}.st49{opacity:.6;fill:#9cdae6}.st50{opacity:.5;fill:#85d5f7}.st51{fill:#bdddf4}</style><rect id="XMLID_137_" width="1920" height="1080" class="st0"/><g id="XMLID_120_"><g id="XMLID_106_"><circle id="XMLID_108_" cx="1766.5" cy="921.6" r="147.3" class="st1"/><path id="XMLID_107_" d="M1829.9,1055.1c28.9-31.1,44.2-74.3,38.2-119.7c-10.7-80.6-84.7-137.4-165.3-126.7 c-16.1,2.1-31.3,6.8-45.1,13.5c22.5-24.2,53.2-41,88.5-45.6c80.6-10.7,154.6,46.1,165.3,126.7 C1920,967.9,1885.4,1028.2,1829.9,1055.1z" class="st1"/></g><path id="XMLID_105_" d="M1658.2,1000.7c8.7,8.6,18.5,16.2,29.1,22.4" class="st2"/><path id="XMLID_104_" d="M1637.4,917.2c0.5,17.4,4.1,34.2,10.3,49.9" class="st2"/><path id="XMLID_121_" d="M1761.8,956.9l15.6-19.4c0.4-0.4,0.6-1,0.6-1.5l2.6-24.7c0.2-2.3,3-3.5,4.8-2l19.4,15.6 c0.4,0.4,1,0.6,1.5,0.6l24.7,2.6c2.3,0.2,3.5,3,2,4.8l-15.6,19.4c-0.4,0.4-0.6,1-0.6,1.5l-2.6,24.7c-0.2,2.3-3,3.5-4.8,2 l-19.4-15.6c-0.4-0.4-1-0.6-1.5-0.6l-24.7-2.6C1761.5,961.4,1760.4,958.7,1761.8,956.9z" class="st3"/><path id="XMLID_129_" d="M1763.8,928.1l24.7-2.7c0.6-0.1,1.1-0.3,1.5-0.6l19.4-15.6c1.8-1.5,4.6-0.3,4.8,2l2.7,24.7 c0.1,0.6,0.3,1.1,0.6,1.5l15.6,19.4c1.5,1.8,0.3,4.6-2,4.8l-24.7,2.7c-0.6,0.1-1.1,0.3-1.5,0.6l-19.4,15.6c-1.8,1.5-4.6,0.3-4.8-2 l-2.7-24.7c-0.1-0.6-0.3-1.1-0.6-1.5l-15.6-19.4C1760.3,931.1,1761.4,928.4,1763.8,928.1z" class="st3"/><path id="XMLID_122_" d="M1674,878.4l11.4-1.3c0.3,0,0.5-0.1,0.7-0.3l8.9-7.2c0.8-0.7,2.1-0.2,2.2,0.9l1.3,11.4 c0,0.3,0.1,0.5,0.3,0.7l7.2,8.9c0.7,0.8,0.2,2.1-0.9,2.2l-11.4,1.3c-0.3,0-0.5,0.1-0.7,0.3l-8.9,7.2c-0.8,0.7-2.1,0.2-2.2-0.9 l-1.3-11.4c0-0.3-0.1-0.5-0.3-0.7l-7.2-8.9C1672.4,879.8,1672.9,878.6,1674,878.4z" class="st4"/><path id="XMLID_130_" d="M1769.7,1015.5l11.4-1.3c0.3,0,0.5-0.1,0.7-0.3l8.9-7.2c0.8-0.7,2.1-0.2,2.2,0.9l1.3,11.4 c0,0.3,0.1,0.5,0.3,0.7l7.2,8.9c0.7,0.8,0.2,2.1-0.9,2.2l-11.4,1.3c-0.3,0-0.5,0.1-0.7,0.3l-8.9,7.2c-0.8,0.7-2.1,0.2-2.2-0.9 l-1.3-11.4c0-0.3-0.1-0.5-0.3-0.7l-7.2-8.9C1768.1,1016.9,1768.6,1015.6,1769.7,1015.5z" class="st5"/><circle id="XMLID_123_" cx="1721.1" cy="957.8" r="3.7" class="st6"/><circle id="XMLID_124_" cx="1761.2" cy="847.8" r="5.3" class="st0"/><circle id="XMLID_125_" cx="1726.7" cy="1028.1" r="4.9" class="st0"/></g><line id="XMLID_97_" x1="269.6" x2="386.8" y1="734.3" y2="797.3" class="st7"/><line id="XMLID_98_" x1="386.8" x2="386.8" y1="797.3" y2="928.9" class="st7"/><line id="XMLID_95_" x1="267.5" x2="159.2" y1="734" y2="770.5" class="st8"/><line id="XMLID_96_" x1="159.2" x2="159.2" y1="770.5" y2="969.5" class="st8"/><line id="XMLID_94_" x1="201.1" x2="201.1" y1="800.4" y2="909.8" class="st9"/><line id="XMLID_84_" x1="358.8" x2="358.8" y1="823.1" y2="928.9" class="st10"/><line id="XMLID_85_" x1="267.5" x2="201.1" y1="734" y2="800.4" class="st9"/><line id="XMLID_18_" x1="267.5" x2="358.8" y1="734" y2="823.1" class="st10"/><rect id="XMLID_82_" width="14.4" height="60" x="262.4" y="1020" class="st11"/><line id="XMLID_23_" x1="101.1" x2="267.5" y1="754" y2="734" class="st12"/><line id="XMLID_14_" x1="408.8" x2="267.5" y1="754" y2="734" class="st13"/><line id="XMLID_10_" x1="249.4" x2="268.9" y1="154.4" y2="89.5" class="st14"/><line id="XMLID_8_" x1="204.9" x2="47.5" y1="89.5" y2="89.5" class="st15"/><circle id="XMLID_3_" cx="269.5" cy="413.5" r="259.5" class="st16"/><g id="XMLID_1_"><g id="XMLID_136_"><g id="XMLID_133_"><path id="XMLID_55_" d="M243.6,350.3l73-73c-5.9,5.9-14.1,7.2-18.4,2.9c-4.2-4.2-2.9-12.5,2.9-18.4l-73,73 c-5.9,5.9-7.2,14.1-2.9,18.4C229.4,357.5,237.7,356.1,243.6,350.3z" class="st17"/><path id="XMLID_54_" d="M230.7,363.1L356.8,237c3.3-3.3,8.7-3.3,12,0l3.4,3.4c3.3,3.3,3.3,8.7,0,12L246.1,378.6 c-3.3,3.3-8.7,3.3-12,0l-3.4-3.4C227.4,371.8,227.4,366.4,230.7,363.1z" class="st17"/><path id="XMLID_53_" d="M253.2,395.2l64.3-64.3c-5.1,2.7-10.6,2.7-13.7-0.4l0,0c-4.2-4.2-2.7-12.8,3.5-18.9l8.6-8.6 c-1.8,1-3.6,2.3-5.3,3.9l-72.8,72.8c-6.2,6.2-7.8,14.7-3.5,18.9l0,0C238.5,402.9,247.1,401.4,253.2,395.2z" class="st17"/><path id="XMLID_49_" d="M199.9,332.3L304.1,228c3.3-3.3,8.7-3.3,12,0l3.4,3.4c3.3,3.3,3.3,8.7,0,12L215.3,347.7 c-3.3,3.3-8.7,3.3-12,0l-3.4-3.4C196.6,341,196.6,335.6,199.9,332.3z" class="st17"/><path id="XMLID_48_" d="M248,400.4l92.9-92.9c3.3-3.3,8.7-3.3,12,0l3.4,3.4c3.3,3.3,3.3,8.7,0,12l-92.9,92.9 c-3.3,3.3-8.7,3.3-12,0l-3.4-3.4C244.7,409.1,244.7,403.7,248,400.4z" class="st17"/></g><g id="XMLID_50_"><path id="XMLID_52_" d="M207.2,441.2l77.3-77.3c-4.2,4.2-11.2,4.2-15.4,0l0,0c-4.2-4.2-4.2-11.2,0-15.4l-77.3,77.3 c-4.2,4.2-4.2,11.2,0,15.4l0,0C196,445.5,203,445.5,207.2,441.2z" class="st18"/><path id="XMLID_51_" d="M192.8,397.6l62.6-62.6c-4.2,4.2-11.2,4.2-15.4,0c-4.2-4.2-4.2-11.2,0-15.4l-62.6,62.6 c-4.2,4.2-4.2,11.2,0,15.4C181.6,401.8,188.5,401.8,192.8,397.6z" class="st18"/><path id="XMLID_47_" d="M204.4,385.9l85.3-85.3c3.3-3.3,8.7-3.3,12,0l3.4,3.4c3.3,3.3,3.3,8.7,0,12l-85.3,85.3 c-3.3,3.3-8.7,3.3-12,0l-3.4-3.4C201.1,394.6,201.1,389.2,204.4,385.9z" class="st18"/><path id="XMLID_46_" d="M146.5,385.6l101.4-101.4c3.3-3.3,8.7-3.3,12,0l3.4,3.4c3.3,3.3,3.3,8.7,0,12L161.9,401.1 c-3.3,3.3-8.7,3.3-12,0l-3.4-3.4C143.2,394.3,143.2,388.9,146.5,385.6z" class="st18"/><path id="XMLID_45_" d="M194,454.4l106.2-106.2c3.3-3.3,8.7-3.3,12,0l3.4,3.4c3.3,3.3,3.3,8.7,0,12L209.5,469.8 c-3.3,3.3-8.7,3.3-12,0l-3.4-3.4C190.7,463.1,190.7,457.7,194,454.4z" class="st18"/><path id="XMLID_44_" d="M178.9,376.4l21.4,5.7c11.3,3,20.2,11.9,23.2,23.2l5.7,21.4c3,11.3-0.2,23.4-8.5,31.7 l-15.7,15.7c-8.3,8.3-20.4,11.5-31.7,8.5l-21.4-5.7c-11.3-3-20.2-11.9-23.2-23.2l-5.7-21.4c-3-11.3,0.2-23.4,8.5-31.7l15.7-15.7 C155.5,376.6,167.6,373.4,178.9,376.4z" class="st18"/></g><path id="XMLID_41_" d="M307.1,265.8l36.6-36.6c1.2-1.2,3.1-1.2,4.3,0l1.2,1.2c1.2,1.2,1.2,3.1,0,4.3l-36.6,36.6 c-1.2,1.2-3.1,1.2-4.3,0l-1.2-1.2C305.9,268.9,305.9,267,307.1,265.8z" class="st19"/><path id="XMLID_40_" d="M261.7,401.8l45.7-45.7c1.2-1.2,3.1-1.2,4.3,0l1.2,1.2c1.2,1.2,1.2,3.1,0,4.3l-45.7,45.7 c-1.2,1.2-3.1,1.2-4.3,0l-1.2-1.2C260.5,404.9,260.5,403,261.7,401.8z" class="st17"/><path id="XMLID_38_" d="M283.2,323.2l14.7-14.7c1.2-1.2,3.1-1.2,4.3,0l1.2,1.2c1.2,1.2,1.2,3.1,0,4.3l-14.7,14.7 c-1.2,1.2-3.1,1.2-4.3,0l-1.2-1.2C282,326.4,282,324.4,283.2,323.2z" class="st17"/><path id="XMLID_36_" d="M228.8,318.8l26.1-26.1c1.2-1.2,3.1-1.2,4.3,0l1.2,1.2c1.2,1.2,1.2,3.1,0,4.3l-26.1,26.1 c-1.2,1.2-3.1,1.2-4.3,0l-1.2-1.2C227.6,321.9,227.6,320,228.8,318.8z" class="st17"/><path id="XMLID_34_" d="M333.4,330.1l14.7-14.7c1.2-1.2,3.1-1.2,4.3,0l1.2,1.2c1.2,1.2,1.2,3.1,0,4.3l-14.7,14.7 c-1.2,1.2-3.1,1.2-4.3,0l-1.2-1.2C332.2,333.3,332.2,331.3,333.4,330.1z" class="st20"/><path id="XMLID_33_" d="M330.5,278.8l33.3-33.3c1.2-1.2,3.1-1.2,4.3,0l1.2,1.2c1.2,1.2,1.2,3.1,0,4.3l-33.3,33.3 c-1.2,1.2-3.1,1.2-4.3,0l-1.2-1.2C329.3,281.9,329.3,279.9,330.5,278.8z" class="st20"/><path id="XMLID_32_" d="M295.6,252l14.7-14.7c1.2-1.2,3.1-1.2,4.3,0l1.2,1.2c1.2,1.2,1.2,3.1,0,4.3l-14.7,14.7 c-1.2,1.2-3.1,1.2-4.3,0l-1.2-1.2C294.4,255.1,294.4,253.1,295.6,252z" class="st20"/><path id="XMLID_31_" d="M335.5,298.4l27.3-27.3c1.2-1.2,3.1-1.2,4.3,0l1.2,1.2c1.2,1.2,1.2,3.1,0,4.3L341.1,304 c-1.2,1.2-3.1,1.2-4.3,0l-1.2-1.2C334.3,301.6,334.3,299.6,335.5,298.4z" class="st19"/><path id="XMLID_28_" d="M306.5,214l22.1-22.1c1.2-1.2,3.1-1.2,4.3,0l1.2,1.2c1.2,1.2,1.2,3.1,0,4.3L312,219.6 c-1.2,1.2-3.1,1.2-4.3,0l-1.2-1.2C305.3,217.2,305.3,215.2,306.5,214z" class="st19"/></g><g id="XMLID_57_"><path id="XMLID_27_" d="M178.7,380.2l19.9,5.3c10.5,2.8,18.8,11.1,21.6,21.6l5.3,19.9c2.8,10.5-0.2,21.8-7.9,29.5 l-14.6,14.6c-7.7,7.7-19,10.7-29.5,7.9l-19.9-5.3c-10.5-2.8-18.8-11.1-21.6-21.6l-5.3-19.9c-2.8-10.5,0.2-21.8,7.9-29.5l14.6-14.6 C156.9,380.3,168.2,377.3,178.7,380.2z" class="st21"/><path id="XMLID_29_" d="M178.4,385.9l17.6,4.7c9.3,2.5,16.6,9.8,19.1,19.1l4.7,17.6c2.5,9.3-0.2,19.2-7,26.1 l-12.9,12.9c-6.8,6.8-16.7,9.5-26.1,7l-17.6-4.7c-9.3-2.5-16.6-9.8-19.1-19.1l-4.7-17.6c-2.5-9.3,0.2-19.2,7-26.1l12.9-12.9 C159.2,386.1,169.1,383.4,178.4,385.9z" class="st22"/><path id="XMLID_35_" d="M198.3,433.7l1.3-3c0.5-1.2,1.6-2,2.9-2.1l3.3-0.4c1.3-0.1,2.5,0.4,3.3,1.4l1.9,2.6 c0.8,1,0.9,2.4,0.4,3.5l-1.3,3c-0.5,1.2-1.6,2-2.9,2.1l-3.3,0.4c-1.3,0.1-2.5-0.4-3.3-1.4l-1.9-2.6 C197.9,436.2,197.7,434.9,198.3,433.7z" class="st23"/><path id="XMLID_37_" d="M186,405.3l1-2.3c0.4-0.9,1.2-1.5,2.2-1.6l2.5-0.3c1-0.1,1.9,0.3,2.5,1.1l1.5,2 c0.6,0.8,0.7,1.8,0.3,2.7l-1,2.3c-0.4,0.9-1.2,1.5-2.2,1.6l-2.5,0.3c-1,0.1-1.9-0.3-2.5-1.1l-1.5-2 C185.7,407.3,185.6,406.2,186,405.3z" class="st23"/><path id="XMLID_39_" d="M148.9,411.7l2.1-4.7c0.8-1.8,2.5-3.1,4.5-3.3l5.1-0.6c2-0.2,4,0.6,5.2,2.3l3.1,4.2 c1.2,1.6,1.4,3.8,0.6,5.6l-2.1,4.7c-0.8,1.8-2.5,3.1-4.5,3.3l-5.1,0.6c-2,0.2-4-0.6-5.2-2.3l-3.1-4.2 C148.3,415.6,148.1,413.5,148.9,411.7z" class="st23"/><path id="XMLID_42_" d="M147.4,447.8l1.6-3.7c0.6-1.4,2-2.4,3.6-2.6l4-0.4c1.6-0.2,3.1,0.5,4.1,1.8l2.4,3.3 c0.9,1.3,1.1,3,0.5,4.4l-1.6,3.7c-0.6,1.4-2,2.4-3.6,2.6l-4,0.4c-1.6,0.2-3.1-0.5-4.1-1.8l-2.4-3.3 C146.9,450.9,146.7,449.3,147.4,447.8z" class="st23"/><path id="XMLID_43_" d="M178.9,447.8l2.5-0.1c1,0,1.9,0.5,2.4,1.3l1.3,2.2c0.5,0.8,0.6,1.9,0.1,2.8l-1.2,2.2 c-0.5,0.9-1.4,1.4-2.3,1.5l-2.5,0.1c-1,0-1.9-0.5-2.4-1.3l-1.3-2.2c-0.5-0.8-0.6-1.9-0.1-2.8l1.2-2.2 C177,448.3,177.9,447.8,178.9,447.8z" class="st23"/></g></g><g id="XMLID_2_"><g id="XMLID_111_"><path id="XMLID_30_" d="M308.8,470.8l33.2-33.2c1.2-1.2,3.1-1.2,4.3,0l1.2,1.2c1.2,1.2,1.2,3.1,0,4.3l-33.2,33.2 c-1.2,1.2-3.1,1.2-4.3,0l-1.2-1.2C307.6,474,307.6,472,308.8,470.8z" class="st19"/><g id="XMLID_62_"><path id="XMLID_79_" d="M260.1,555.7l41.9-41.9c-1.9,1.9-4.9,1.9-6.8,0c-1.9-1.9-1.9-4.9,0-6.8l-41.9,41.9 c-1.9,1.9-1.9,4.9,0,6.8C255.2,557.5,258.2,557.5,260.1,555.7z" class="st19"/><path id="XMLID_78_" d="M248.2,540.5l34.8-34.8c-1.9,1.9-4.9,1.9-6.8,0c-1.9-1.9-1.9-4.9,0-6.8l-34.8,34.8 c-1.9,1.9-1.9,4.9,0,6.8C243.3,542.4,246.3,542.4,248.2,540.5z" class="st19"/><path id="XMLID_77_" d="M265.9,549.9l43.4-43.4c1.9-1.9,4.9-1.9,6.8,0h0c1.9,1.9,1.9,4.9,0,6.8l-43.4,43.4 c-1.9,1.9-4.9,1.9-6.8,0l0,0C264,554.8,264,551.8,265.9,549.9z" class="st19"/><path id="XMLID_76_" d="M259.3,529.4l43.4-43.4c1.9-1.9,4.9-1.9,6.8,0l0,0c1.9,1.9,1.9,4.9,0,6.8l-43.4,43.4 c-1.9,1.9-4.9,1.9-6.8,0v0C257.4,534.3,257.4,531.2,259.3,529.4z" class="st19"/><path id="XMLID_75_" d="M242.4,520.2l43.4-43.4c1.9-1.9,4.9-1.9,6.8,0l0,0c1.9,1.9,1.9,4.9,0,6.8L249.2,527 c-1.9,1.9-4.9,1.9-6.8,0h0C240.6,525.1,240.6,522.1,242.4,520.2z" class="st19"/><path id="XMLID_74_" d="M220.4,568.3l34.7-34.7c-1.9,1.9-4.9,1.9-6.8,0c-1.9-1.9-1.9-4.9,0-6.8l-34.7,34.7 c-1.9,1.9-1.9,4.9,0,6.8C215.4,570.2,218.5,570.2,220.4,568.3z" class="st24"/><path id="XMLID_73_" d="M242.7,573.1l19.5-19.5c-1.9,1.9-4.9,1.9-6.8,0l0,0c-1.9-1.9-1.9-4.9,0-6.8l-19.5,19.5 c-1.9,1.9-1.9,4.9,0,6.8l0,0C237.7,575,240.8,575,242.7,573.1z" class="st24"/><path id="XMLID_72_" d="M235.2,580.5l43.4-43.4c1.9-1.9,4.9-1.9,6.8,0l0,0c1.9,1.9,1.9,4.9,0,6.8L242,587.3 c-1.9,1.9-4.9,1.9-6.8,0h0C233.4,585.4,233.4,582.4,235.2,580.5z" class="st24"/><path id="XMLID_71_" d="M221.7,567l53.1-53.1c1.9-1.9,4.9-1.9,6.8,0l0,0c1.9,1.9,1.9,4.9,0,6.8l-53.1,53.1 c-1.9,1.9-4.9,1.9-6.8,0l0,0C219.8,571.9,219.8,568.9,221.7,567z" class="st24"/><path id="XMLID_70_" d="M204.7,557.9l56-56c1.9-1.9,4.9-1.9,6.8,0v0c1.9,1.9,1.9,4.9,0,6.8l-56,56 c-1.9,1.9-4.9,1.9-6.8,0l0,0C202.9,562.8,202.9,559.7,204.7,557.9z" class="st24"/><path id="XMLID_69_" d="M207.3,556.1l13.6-6.3c2.8-1.3,6.2-1,8.8,0.8l12.3,8.6c2.6,1.8,4,4.8,3.7,8l-1.3,15 c-0.3,3.1-2.2,5.9-5.1,7.2l-13.6,6.3c-2.8,1.3-6.2,1-8.8-0.8l-12.3-8.6c-2.6-1.8-4-4.8-3.7-8l1.3-15 C202.5,560.1,204.5,557.4,207.3,556.1z" class="st24"/><path id="XMLID_68_" d="M273.7,548.7l7.6-7.6c0.7-0.7,1.9-0.7,2.6,0l0,0c0.7,0.7,0.7,1.9,0,2.6l-7.6,7.6 c-0.7,0.7-1.9,0.7-2.6,0l0,0C273,550.6,273,549.4,273.7,548.7z" class="st25"/><path id="XMLID_67_" d="M266.8,527.9l10.9-10.9c0.7-0.7,1.9-0.7,2.6,0l0,0c0.7,0.7,0.7,1.9,0,2.6l-10.9,10.9 c-0.7,0.7-1.9,0.7-2.6,0l0,0C266.1,529.8,266.1,528.6,266.8,527.9z" class="st25"/><path id="XMLID_66_" d="M253.1,516.3l11.3-11.3c0.7-0.7,1.9-0.7,2.6,0l0,0c0.7,0.7,0.7,1.9,0,2.6l-11.3,11.3 c-0.7,0.7-1.9,0.7-2.6,0h0C252.4,518.2,252.4,517,253.1,516.3z" class="st25"/><path id="XMLID_65_" d="M301.7,520.7l9.9-9.9c0.7-0.7,1.9-0.7,2.6,0l0,0c0.7,0.7,0.7,1.9,0,2.6l-9.9,9.9 c-0.7,0.7-1.9,0.7-2.6,0l0,0C300.9,522.6,300.9,521.5,301.7,520.7z" class="st26"/><path id="XMLID_64_" d="M295.7,499.1l9.9-9.9c0.7-0.7,1.9-0.7,2.6,0l0,0c0.7,0.7,0.7,1.9,0,2.6l-9.9,9.9 c-0.7,0.7-1.9,0.7-2.6,0l0,0C295,500.9,295,499.8,295.7,499.1z" class="st26"/><path id="XMLID_63_" d="M276.8,492.6l9.9-9.9c0.7-0.7,1.9-0.7,2.6,0l0,0c0.7,0.7,0.7,1.9,0,2.6l-9.9,9.9 c-0.7,0.7-1.9,0.7-2.6,0l0,0C276,494.5,276,493.3,276.8,492.6z" class="st26"/></g></g><g id="XMLID_56_"><path id="XMLID_61_" d="M208.9,557.7l12.2-5.7c2.6-1.2,5.6-0.9,7.9,0.7l11.1,7.8c2.3,1.6,3.6,4.4,3.3,7.2l-1.2,13.4 c-0.2,2.8-2,5.3-4.5,6.5l-12.2,5.7c-2.6,1.2-5.6,0.9-7.9-0.7l-11.1-7.8c-2.3-1.6-3.6-4.4-3.3-7.2l1.2-13.4 C204.6,561.4,206.4,558.9,208.9,557.7z" class="st21"/><path id="XMLID_60_" d="M211.4,560.3l10.2-4.7c2.1-1,4.6-0.8,6.5,0.6l9.2,6.4c1.9,1.3,3,3.6,2.8,6l-1,11.2 c-0.2,2.3-1.6,4.4-3.8,5.4l-10.2,4.7c-2.1,1-4.6,0.8-6.5-0.6l-9.2-6.4c-1.9-1.3-3-3.6-2.8-6l1-11.2 C207.8,563.3,209.2,561.3,211.4,560.3z" class="st22"/><path id="XMLID_59_" d="M212.6,573l1.5,0c0.6,0,1.1,0.3,1.4,0.8l0.8,1.3c0.3,0.5,0.3,1.1,0.1,1.6l-0.7,1.3 c-0.3,0.5-0.8,0.8-1.4,0.9l-1.5,0c-0.6,0-1.1-0.3-1.4-0.8l-0.8-1.3c-0.3-0.5-0.3-1.1-0.1-1.6l0.7-1.3 C211.5,573.3,212,573,212.6,573z" class="st23"/><path id="XMLID_58_" d="M222.5,568.1l1.3-2.9c0.5-1.1,1.6-1.9,2.8-2l3.1-0.3c1.2-0.1,2.4,0.4,3.2,1.4l1.9,2.6 c0.7,1,0.9,2.3,0.4,3.4l-1.3,2.9c-0.5,1.1-1.6,1.9-2.8,2l-3.1,0.3c-1.2,0.1-2.4-0.4-3.2-1.4l-1.9-2.6 C222.2,570.5,222,569.2,222.5,568.1z" class="st23"/></g></g><circle id="XMLID_167_" cx="146.7" cy="383.3" r="45.6" class="st27"/><circle id="XMLID_168_" cx="146.7" cy="383.3" r="59.1" class="st28"/><circle id="XMLID_170_" cx="227.9" cy="304.9" r="26.4" class="st29"/><circle id="XMLID_169_" cx="227.9" cy="304.9" r="34.1" class="st30"/><path id="XMLID_4_" d="M47.5,275.5c33.1,35.9,66.1,71.9,99.2,107.8" class="st15"/><line id="XMLID_5_" x1="249.4" x2="228.9" y1="154.4" y2="304.9" class="st14"/><line id="XMLID_9_" x1="47.5" x2="47.5" y1="89.5" y2="275.5" class="st15"/><circle id="XMLID_12_" cx="282.3" cy="517.1" r="45.6" class="st31"/><circle id="XMLID_11_" cx="282.3" cy="517.1" r="59.1" class="st32"/><path id="XMLID_6_" d="M103.4,183.1c16.2-13.3,74.9-58,162-58c92.8,0,154.1,50.9,169,64 c-56.3-54.3-112.7-108.7-169-163C211.4,78.5,157.4,130.8,103.4,183.1z" class="st33"/><path id="XMLID_19_" d="M104,640.3c16.2,13.3,74.9,58,162,58c92.8,0,154.1-50.9,169-64c-56.3,54.3-112.7,108.7-169,163 C212,744.9,158,692.6,104,640.3z" class="st33"/><circle id="XMLID_16_" cx="268.9" cy="89.5" r="16.4" class="st34"/><circle id="XMLID_17_" cx="269.6" cy="729.8" r="16.4" class="st34"/><line id="XMLID_7_" x1="281.6" x2="536" y1="513.9" y2="596.4" class="st13"/><line id="XMLID_13_" x1="536" x2="408.8" y1="596.4" y2="754" class="st13"/><circle id="XMLID_20_" cx="205.1" cy="578.5" r="16.2" class="st35"/><circle id="XMLID_15_" cx="205.1" cy="578.5" r="20.9" class="st36"/><line id="XMLID_21_" x1="203.2" x2="52" y1="577.7" y2="646" class="st12"/><line id="XMLID_22_" x1="52" x2="101.1" y1="646" y2="754" class="st12"/><path id="XMLID_138_" d="M349.5,165.4c57.7,47.6,94.4,119.6,94.4,200.2c0,143.3-116.2,259.5-259.5,259.5 c-28.6,0-56.2-4.7-82-13.2c44.9,37,102.4,59.3,165.1,59.3C410.8,671.2,527,555,527,411.7C527,297,452.6,199.8,349.5,165.4z" class="st16"/><path id="XMLID_139_" d="M99,276.9c13.2-17.1,28.6-32.6,45.7-45.9" class="st37"/><path id="XMLID_25_" d="M239,770.5c10.1,35,20.2,70.1,30.3,105.1c8.2-35,16.5-70.1,24.7-105.1 C275.7,770.5,257.3,770.5,239,770.5z" class="st33"/><path id="XMLID_24_" d="M45,450.9c-3.2-30.5-0.8-60.7,6.4-89.5" class="st37"/><line id="XMLID_26_" x1="268.9" x2="268.9" y1="770.5" y2="830" class="st38"/><rect id="XMLID_80_" width="321.4" height="149.4" x="108.9" y="882.6" class="st11"/><rect id="XMLID_81_" width="296.9" height="138" x="120.4" y="888.3" class="st39"/><rect id="XMLID_83_" width="272.4" height="13.7" x="136.3" y="1066.3" class="st11"/><g id="XMLID_87_" class="st40"><polygon id="XMLID_88_" points="295.8 888.3 121.2 888.3 121.2 1026.3 418.1 1026.3 418.1 1010.5" class="st41"/><polygon id="XMLID_89_" points="418.1 888.3 336.8 888.3 418.1 969.5" class="st41"/><polygon id="XMLID_90_" points="418.1 969.5 336.8 888.3 295.8 888.3 418.1 1010.5" class="st0"/></g><g id="XMLID_86_" class="st40"><polygon id="XMLID_91_" points="418.1 888.3 396.6 888.3 418.1 909.8" class="st41"/><polygon id="XMLID_92_" points="355.6 888.3 121.2 888.3 121.2 1026.3 418.1 1026.3 418.1 950.8" class="st41"/><polygon id="XMLID_93_" points="418.1 909.8 396.6 888.3 355.6 888.3 418.1 950.8" class="st0"/></g><g id="XMLID_116_"><g id="XMLID_103_"><circle id="XMLID_102_" cx="1815.3" cy="591.8" r="99.9" class="st42"/><path id="XMLID_101_" d="M1774.1,500.3c-20,20.7-31.1,49.8-27.6,80.6c6.1,54.8,55.5,94.4,110.3,88.3 c11-1.2,21.3-4.2,30.8-8.5c-15.6,16.1-36.7,27-60.7,29.7c-54.8,6.1-104.2-33.4-110.3-88.3C1711.8,558.2,1736.1,517.8,1774.1,500.3 z" class="st42"/></g><path id="XMLID_115_" d="M1815.6,665.5c18.1-20.7,36.3-41.4,54.4-62.1c-3.9-19.8-7.7-39.6-11.6-59.3 c-14.2,14-28.4,28-42.5,42C1815.9,612.6,1815.7,639.1,1815.6,665.5z" class="st43"/><path id="XMLID_117_" d="M1840.1,596.2c5.7-16.8,11.4-33.6,17.1-50.4c-13.9,13.3-27.9,26.6-41.8,39.9 C1823.6,589.2,1831.8,592.7,1840.1,596.2z" class="st44"/><path id="XMLID_118_" d="M1841,606.2c-7.5,18-14.9,36-22.4,54c16.2-19.3,32.4-38.6,48.6-57.9 C1858.5,603.6,1849.7,604.9,1841,606.2z" class="st44"/><path id="XMLID_119_" d="M1820,522.2c5.3-4.3,10.7-8.7,16-13c-5.9,11.8-11.8,23.6-17.8,35.5 C1818.8,537.1,1819.4,529.7,1820,522.2z" class="st45"/><path id="XMLID_100_" d="M1874.7,532.3c-5.8-6-12.3-11.2-19.5-15.6" class="st46"/><path id="XMLID_99_" d="M1902.8,596.6c-0.1-11.8-2.3-23.3-6.3-34" class="st46"/><path id="XMLID_126_" d="M1775.3,548.1c4.4,7.2,8.7,14.4,13.1,21.6c1.2-11.3,2.4-22.5,3.6-33.8 C1786.4,540,1780.8,544,1775.3,548.1z" class="st47"/><path id="XMLID_127_" d="M1771.6,616.2c11.5,8.4,23.1,16.8,34.6,25.1c-15-25.4-30.1-50.9-45.1-76.3 C1764.6,582.1,1768.1,599.1,1771.6,616.2z" class="st48"/></g><circle id="XMLID_109_" cx="1729.5" cy="717" r="19.5" class="st49"/><circle id="XMLID_110_" cx="1872" cy="773" r="7" class="st45"/><circle id="XMLID_112_" cx="1866" cy="434.4" r="34.7" class="st50"/><circle id="XMLID_113_" cx="1778.2" cy="459.3" r="9.8" class="st51"/></svg>